<?xml version="1.0" standalone="no"?>
<!DOCTYPE svg PUBLIC "-//W3C//DTD SVG 20010904//EN"
 "http://www.w3.org/TR/2001/REC-SVG-20010904/DTD/svg10.dtd">
<svg version="1.0" xmlns="http://www.w3.org/2000/svg"
 width="700.000000pt" height="700.000000pt" viewBox="0 0 700.000000 700.000000"
 preserveAspectRatio="xMidYMid meet">
<metadata>
Created by potrace 1.14, written by Peter Selinger 2001-2017
</metadata>
<g transform="translate(0.000000,700.000000) scale(0.100000,-0.100000)"
fill="#000000" stroke="none">
<path d="M0 3500 l0 -3500 3500 0 3500 0 0 3500 0 3500 -3500 0 -3500 0 0
-3500z m3819 2834 c135 -14 247 -27 249 -28 1 -2 -1 -17 -4 -35 -6 -30 -10
-32 -35 -27 -15 3 -67 8 -116 12 l-90 7 -17 -174 c-22 -227 -20 -219 -56 -219
-28 0 -30 2 -29 38 0 20 8 109 18 197 10 88 17 162 15 164 -2 2 -53 9 -114 16
-60 6 -112 14 -116 18 -4 3 -4 18 0 32 8 31 -8 31 295 -1z m-515 -10 c4 -15 3
-30 -1 -34 -4 -4 -75 -17 -158 -29 -162 -25 -197 -38 -232 -91 -46 -67 -19
-198 49 -240 42 -25 84 -25 247 1 72 12 138 18 146 15 24 -9 19 -55 -7 -61
-58 -13 -282 -45 -314 -45 -110 0 -201 97 -212 226 -4 51 0 71 21 116 25 55
70 99 117 114 28 8 283 51 316 53 16 1 24 -7 28 -25z m1200 -152 c164 -67 194
-82 219 -114 82 -102 17 -253 -114 -266 -27 -2 -49 -6 -49 -7 0 -1 16 -37 36
-80 19 -42 33 -79 30 -82 -3 -3 -21 3 -41 13 -30 16 -43 33 -75 104 l-39 85
-61 22 c-134 51 -131 48 -119 83 6 17 16 29 23 27 133 -55 258 -99 286 -99 76
0 121 109 66 163 -19 19 -135 70 -307 134 -14 5 -30 -28 -89 -179 -40 -102
-78 -186 -84 -186 -6 1 -20 6 -32 13 -20 12 -19 17 65 229 47 120 88 218 91
217 3 0 90 -35 194 -77z m-1905 12 c6 -14 9 -29 6 -33 -2 -5 -87 -45 -189 -90
l-184 -83 50 -111 c27 -62 57 -129 65 -149 8 -21 21 -38 29 -38 7 0 93 36 190
80 98 44 179 80 181 80 1 0 9 -13 18 -30 15 -29 15 -30 -17 -44 -18 -7 -116
-50 -217 -95 -101 -45 -188 -80 -193 -79 -10 4 -187 395 -188 414 0 8 403 198
431 203 3 1 11 -11 18 -25z m32 -211 c5 -14 6 -30 2 -34 -10 -10 -285 -131
-288 -127 -14 17 -25 52 -18 58 9 9 273 128 286 129 4 1 12 -11 18 -26z m2417
-63 l23 -19 -80 -107 c-91 -121 -108 -162 -90 -226 12 -46 66 -106 121 -134
45 -23 117 -22 159 2 19 11 68 65 110 119 42 54 80 100 86 102 5 2 20 -4 31
-14 l22 -18 -86 -112 c-70 -91 -95 -117 -137 -138 -63 -31 -143 -33 -204 -6
-57 26 -132 97 -154 146 -23 49 -24 133 -3 183 14 35 164 242 174 241 3 0 15
-8 28 -19z m-3096 -100 c46 -13 105 -77 114 -124 8 -47 -2 -98 -26 -129 -11
-14 -70 -67 -131 -118 l-110 -92 -17 24 c-9 13 -17 27 -17 30 0 4 50 47 111
97 61 50 114 99 118 107 12 33 6 83 -14 108 -22 28 -74 43 -109 32 -28 -8
-267 -206 -263 -217 1 -5 56 -74 122 -154 66 -81 120 -150 120 -154 0 -4 -11
-15 -24 -24 -24 -15 -25 -15 -168 159 -79 97 -144 179 -146 184 -4 12 281 243
326 263 43 20 63 22 114 8z m1738 -390 c852 -88 1550 -708 1733 -1540 80 -363
55 -761 -70 -1100 -227 -616 -746 -1082 -1378 -1236 -221 -54 -501 -69 -727
-39 -905 119 -1608 839 -1707 1747 -41 370 25 740 194 1083 101 205 194 337
363 509 414 422 1007 636 1592 576z m2049 -184 c7 -33 7 -65 1 -91 -5 -22 -10
-43 -10 -46 0 -3 16 -6 35 -7 74 -3 137 -46 208 -143 l27 -36 -192 -137 -192
-137 -18 23 c-10 13 -18 26 -18 29 0 3 72 57 160 120 88 63 160 117 160 121 0
19 -70 77 -107 88 -64 20 -101 6 -223 -80 l-113 -79 -18 24 c-11 13 -19 25
-19 28 0 2 42 34 93 70 114 81 143 109 158 154 15 46 4 111 -25 147 l-23 29
-161 -116 -162 -116 -20 26 c-11 15 -17 30 -13 33 4 4 91 66 192 139 l184 131
43 -61 c27 -39 47 -80 53 -113z m-4392 76 l23 -17 -115 -164 c-63 -90 -115
-173 -115 -183 0 -23 43 -68 65 -68 33 0 53 21 140 145 101 146 128 168 198
162 78 -7 138 -84 120 -156 -5 -24 -237 -366 -255 -377 -4 -3 -19 3 -32 13
l-23 19 119 169 c65 94 121 180 125 193 9 36 -21 72 -62 72 -42 0 -45 -3 -146
-149 -89 -127 -120 -154 -178 -154 -80 0 -131 53 -131 136 0 40 11 60 116 211
63 91 118 166 122 166 4 0 17 -8 29 -18z m4463 -3081 c96 -68 177 -126 179
-128 7 -5 -22 -53 -32 -53 -5 0 -79 50 -165 111 -85 60 -160 108 -167 106 -20
-8 -45 -72 -45 -116 0 -73 28 -110 149 -196 l110 -78 -20 -28 -20 -28 -110 79
c-114 82 -152 97 -215 86 -36 -7 -114 -69 -114 -90 0 -6 72 -63 159 -125 159
-113 160 -113 144 -137 -8 -13 -20 -24 -25 -24 -8 0 -345 236 -371 260 -12 11
76 124 116 149 20 12 60 27 90 33 52 11 55 13 46 36 -12 32 -11 92 3 133 18
53 87 151 101 142 7 -3 91 -63 187 -132z m-4383 62 c22 -12 71 -73 148 -182
106 -152 113 -165 96 -177 -10 -7 -23 -14 -29 -16 -6 -2 -62 69 -124 157 -104
147 -116 160 -147 163 -41 4 -71 -21 -71 -58 0 -18 31 -71 90 -156 113 -162
123 -204 64 -273 -34 -41 -89 -57 -138 -41 -42 14 -59 33 -199 235 l-104 149
22 18 c13 10 26 18 28 18 3 0 58 -75 123 -167 64 -93 124 -174 132 -180 39
-31 102 2 102 53 0 17 -30 69 -80 141 -94 134 -110 163 -110 198 0 102 108
166 197 118z m543 -605 c147 -123 170 -152 170 -220 0 -101 -53 -159 -150
-166 -71 -5 -79 -1 -218 112 -109 89 -110 90 -94 113 10 12 21 23 25 23 5 0
54 -38 110 -83 56 -46 113 -90 126 -96 48 -26 118 9 136 67 15 50 -11 85 -140
190 -68 56 -128 102 -132 101 -4 0 -62 -67 -128 -149 -66 -82 -125 -149 -131
-149 -6 -1 -19 8 -29 19 -16 18 -16 20 1 42 11 13 77 95 148 181 l128 157 27
-20 c14 -10 82 -66 151 -122z m3255 -28 c90 -118 105 -151 105 -222 0 -82 -36
-147 -109 -201 -76 -56 -142 -74 -209 -58 -74 19 -113 51 -200 166 l-82 107
24 19 c13 11 26 19 29 19 3 0 34 -39 70 -87 99 -133 137 -163 208 -163 71 0
178 83 197 153 18 66 5 102 -84 221 -83 110 -83 111 -63 129 12 9 25 17 30 17
4 0 42 -45 84 -100z m-2703 -321 c101 -45 197 -88 215 -95 30 -13 31 -16 22
-44 -6 -16 -14 -30 -18 -30 -4 0 -88 36 -186 80 -98 44 -183 80 -189 80 -13
-1 -140 -285 -132 -298 3 -5 86 -44 185 -88 184 -80 196 -90 168 -127 -11 -16
-30 -9 -227 78 -118 53 -216 98 -219 100 -6 7 181 425 190 425 5 0 91 -37 191
-81z m2060 1 c53 -15 94 -53 114 -106 15 -40 16 -53 5 -93 -7 -25 -26 -60 -42
-77 l-31 -32 79 -32 c43 -18 82 -35 86 -39 4 -4 -11 -14 -33 -21 -38 -13 -45
-12 -130 22 l-90 36 -85 -34 c-47 -19 -91 -34 -99 -34 -12 0 -32 47 -24 55 2
2 62 26 133 55 72 28 138 59 148 69 10 10 21 37 24 59 5 37 2 45 -30 77 -21
21 -45 35 -60 35 -23 0 -303 -105 -320 -120 -4 -4 24 -89 63 -189 40 -100 70
-184 68 -185 -13 -12 -51 -27 -55 -22 -5 5 -173 426 -173 433 0 2 248 100 330
129 75 27 73 27 122 14z m-2101 -204 c79 -35 145 -70 147 -77 1 -8 -3 -22 -10
-32 -15 -19 -29 -14 -240 81 l-67 31 10 30 c6 17 12 31 14 31 1 0 67 -29 146
-64z m725 9 c85 -14 156 -25 158 -25 2 0 0 -15 -3 -32 -5 -20 -13 -32 -22 -31
-8 1 -76 12 -153 24 -76 12 -156 19 -178 16 -97 -13 -159 -151 -110 -247 29
-59 66 -75 224 -99 79 -13 151 -25 161 -27 21 -6 23 -52 3 -60 -16 -6 -270 31
-331 49 -89 26 -156 142 -140 245 14 95 78 180 152 202 45 13 75 11 239 -15z
m808 9 c9 -25 7 -54 -4 -54 -21 0 -205 -21 -216 -24 -7 -3 -5 -54 7 -162 10
-88 18 -178 18 -201 1 -41 0 -43 -28 -43 -36 0 -34 -7 -57 229 l-17 173 -36
-6 c-20 -3 -72 -8 -117 -12 l-81 -7 -6 29 c-3 16 -3 31 -1 33 3 3 437 53 515
60 9 0 20 -6 23 -15z"/>
<path d="M3290 5270 c-216 -27 -395 -82 -605 -186 -176 -87 -301 -173 -437
-303 -319 -303 -508 -684 -559 -1121 -14 -128 -7 -391 15 -509 140 -755 705
-1331 1458 -1483 98 -20 143 -23 343 -23 203 0 243 3 345 24 562 116 1025 467
1274 966 146 291 205 561 193 885 -6 180 -26 300 -73 458 -87 287 -239 543
-450 757 -271 275 -609 451 -999 520 -107 19 -398 28 -505 15z m301 -1265
l241 -409 -63 -58 c-35 -31 -66 -57 -69 -58 -3 0 -92 138 -199 305 l-194 306
-37 -68 c-20 -37 -110 -208 -199 -380 l-163 -312 -52 21 c-28 11 -64 25 -79
30 -15 6 -27 14 -25 17 18 45 583 1021 589 1019 5 -2 117 -187 250 -413z
m1229 336 l0 -69 -690 -517 c-390 -292 -687 -522 -683 -528 4 -6 1 -7 -6 -2
-7 4 -9 11 -4 16 33 32 1370 1168 1376 1168 4 1 7 -30 7 -68z m-7 -341 c-4 -4
-291 -169 -638 -365 -346 -197 -650 -369 -675 -383 -25 -14 -42 -22 -38 -17 4
4 310 207 680 450 l673 442 3 -60 c2 -33 -1 -63 -5 -67z m3 -277 c-2 -2 -109
-44 -238 -93 -128 -49 -435 -165 -682 -259 -248 -94 -451 -169 -452 -168 -1 1
307 149 684 329 l687 328 3 -66 c2 -37 1 -68 -2 -71z m-2169 -300 c320 -125
581 -229 579 -231 -2 -1 -267 60 -589 138 -322 77 -588 140 -591 140 -8 0 -8
110 0 149 4 17 9 31 13 31 3 0 268 -102 588 -227z m2176 95 c3 -35 5 -64 4
-65 -5 -4 -1340 -263 -1343 -260 -4 4 1301 385 1322 386 7 1 14 -25 17 -61z
m7 -272 l0 -64 -242 -6 c-321 -7 -1173 -14 -1128 -9 173 22 1286 141 1323 142
l47 1 0 -64z m-2035 35 c42 -11 69 -23 67 -30 -1 -6 -67 -136 -147 -288 -80
-152 -145 -280 -145 -285 0 -6 47 -8 123 -4 67 3 401 13 742 21 341 9 648 18
682 21 l62 6 -54 84 c-30 46 -51 84 -47 84 18 0 198 -64 209 -74 14 -14 175
-287 171 -291 -5 -5 -2181 14 -2185 19 -10 10 422 756 437 756 8 0 47 -9 85
-19z m672 -97 c-3 -3 -12 -4 -19 -1 -8 3 -5 6 6 6 11 1 17 -2 13 -5z m6 -41
c-7 -2 -21 -2 -30 0 -10 3 -4 5 12 5 17 0 24 -2 18 -5z m732 -51 l620 -47 3
-62 3 -62 -33 5 c-839 134 -1302 212 -1263 213 28 0 329 -21 670 -47z m-50
-145 l670 -172 3 -63 c2 -34 1 -62 -1 -62 -5 0 -1265 432 -1322 454 -22 8 -35
15 -30 15 6 0 312 -77 680 -172z"/>
<path d="M3330 4135 c0 -14 291 -479 312 -500 6 -5 -1 10 -16 35 -14 25 -83
143 -153 262 -71 120 -131 218 -135 218 -5 0 -8 -7 -8 -15z"/>
<path d="M2780 3180 c-6 -11 -8 -20 -6 -20 3 0 10 9 16 20 6 11 8 20 6 20 -3
0 -10 -9 -16 -20z"/>
<path d="M2632 2918 c-131 -231 -139 -248 -124 -248 6 0 24 24 40 53 55 97
214 407 209 407 -3 0 -59 -96 -125 -212z"/>
<path d="M3765 2670 c-111 -5 -77 -6 158 -8 197 -1 296 1 292 8 -6 11 -199 11
-450 0z"/>
</g>
</svg>
