<svg width="505" height="505" viewBox="0 0 505 505" fill="none" xmlns="http://www.w3.org/2000/svg">
<g clip-path="url(#clip0_3_691)">
<path d="M505 -3.03003H-2.02002V507.02H505V-3.03003Z" fill="#1D1617" stroke="#1D1617"/>
<path fill-rule="evenodd" clip-rule="evenodd" d="M426.627 208.538L434.669 207.374C438.386 222.308 440.36 237.931 440.36 254.015C440.36 270.959 438.17 287.39 434.058 303.043L426.01 301.859C430.099 286.602 432.28 270.563 432.28 254.015C432.28 238.321 430.319 223.084 426.627 208.538ZM69.8982 301.852C65.8099 286.597 63.63 270.561 63.63 254.015C63.63 238.313 65.5935 223.069 69.2883 208.517L61.2581 207.31C57.5293 222.263 55.55 237.908 55.55 254.015C55.55 270.964 57.7414 287.4 61.8563 303.057L69.8982 301.852Z" fill="#453F8B"/>
<path d="M162.932 322.001L240.889 184.964L322.234 323.113" fill="#EDAE42"/>
<path d="M179.992 312.171L240.835 205.222L304.32 313.039" fill="#1D1617"/>
<path d="M180.358 314.961L238.248 204.389L306.423 311.44" fill="#ECAE42"/>
<path d="M185.091 312.106L238.507 210.08L301.413 308.858" fill="#1D1617"/>
<path d="M354.018 179.938L239.627 277.393L355.374 317.104" fill="#1D1617"/>
<path d="M347.597 186.066L240.625 277.201L348.865 314.337" fill="#ECAE42"/>
<path d="M348.403 196.412L240.749 277.18L348.465 206.363" fill="#1D1617"/>
<path d="M348.608 215.952L240.818 277.18L348.597 225.789" fill="#1D1617"/>
<path d="M348.809 236.23L240.888 277.177L348.9 245.89" fill="#1D1617"/>
<path d="M349.396 255.851L240.957 277.177L349.6 265.511" fill="#1D1617"/>
<path d="M349.236 275.874L240.854 277.188L349.44 285.268" fill="#1D1617"/>
<path d="M349.477 294.595L240.774 277.198L349.48 305.048" fill="#1D1617"/>
<path d="M158.801 244.968L158.65 257.834L244.73 278.495" fill="#1D1617"/>
<path d="M147.411 240.952L147.25 254.65L238.892 276.644" fill="#ECAE42"/>
<path d="M116.048 132.163C117.159 132.941 118.056 133.876 118.736 134.969C119.403 136.052 119.846 137.209 120.063 138.441C120.276 139.649 120.251 140.883 119.985 142.142C119.729 143.389 119.217 144.561 118.448 145.66L101.536 169.825L97.5602 167.043L114.472 142.878C114.861 142.322 115.12 141.732 115.247 141.109C115.375 140.486 115.38 139.873 115.263 139.271C115.154 138.656 114.933 138.077 114.6 137.535C114.253 136.984 113.808 136.519 113.265 136.139C112.722 135.759 112.139 135.505 111.516 135.377C110.893 135.249 110.273 135.24 109.658 135.348C109.052 135.444 108.478 135.659 107.936 135.992C107.394 136.326 106.929 136.771 106.54 137.327L95.1928 153.54C94.4327 154.626 93.5065 155.51 92.4141 156.189C91.3217 156.87 90.1666 157.323 88.9488 157.549C87.727 157.754 86.482 157.73 85.2137 157.478C83.9545 157.213 82.7753 156.696 81.6763 155.927C80.5903 155.167 79.7071 154.241 79.027 153.148C78.3558 152.043 77.9136 150.886 77.7001 149.677C77.4828 148.447 77.5066 147.201 77.7715 145.942C78.0234 144.673 78.5295 143.497 79.2896 142.41L94.8034 120.242L98.7791 123.025L83.2653 145.192C82.8854 145.736 82.6268 146.326 82.4899 146.962C82.3619 147.585 82.3523 148.204 82.461 148.819C82.5697 149.434 82.7972 150.018 83.1437 150.569C83.4773 151.11 83.9157 151.571 84.4588 151.951C85.0018 152.331 85.5914 152.59 86.2275 152.727C86.8506 152.854 87.4699 152.864 88.0853 152.755C88.7007 152.647 89.2792 152.426 89.8209 152.092C90.3716 151.745 90.8369 151.301 91.217 150.758L102.563 134.544C103.333 133.445 104.265 132.566 105.362 131.908C106.454 131.228 107.611 130.786 108.833 130.582C110.051 130.356 111.29 130.375 112.549 130.639C113.796 130.895 114.961 131.403 116.048 132.163Z" fill="white"/>
<path d="M146.524 89.6753C147.584 90.9684 148.336 92.3935 148.776 93.9507C149.219 95.4857 149.365 97.0305 149.211 98.5853C149.061 100.118 148.618 101.594 147.884 103.013C147.15 104.432 146.137 105.672 144.843 106.733L129.784 119.092L126.75 115.397L141.81 103.037C142.591 102.396 143.203 101.648 143.645 100.795C144.079 99.9299 144.334 99.0357 144.414 98.1128C144.506 97.18 144.418 96.2518 144.15 95.3285C143.873 94.3928 143.413 93.5346 142.772 92.7539C142.131 91.9731 141.384 91.3614 140.53 90.9185C139.677 90.4756 138.789 90.2143 137.866 90.1346C136.946 90.0328 136.024 90.1159 135.101 90.3837C134.177 90.6516 133.325 91.1059 132.544 91.7466L115.38 105.833L133.836 128.322L130.085 131.4L108.551 105.16L129.466 87.9955C130.759 86.9342 132.178 86.1881 133.723 85.7572C135.257 85.3141 136.796 85.174 138.339 85.3372C139.884 85.4781 141.366 85.9156 142.785 86.6496C144.216 87.3737 145.462 88.3822 146.524 89.6753Z" fill="white"/>
<path d="M200.459 87.944L168.387 102.22L154.583 71.2082L186.655 56.9321L188.629 61.3654L160.99 73.668L170.848 95.8132L198.485 83.5106L200.459 87.944ZM190.786 76.3405L169.116 85.9862L167.143 81.5529L188.812 71.9072L190.786 76.3405Z" fill="white"/>
<path d="M243.371 80.149L221.793 83.5837C219.471 83.9533 217.289 83.8531 215.249 83.2829C213.209 82.7129 211.39 81.7799 209.794 80.4839C208.212 79.1856 206.893 77.5738 205.836 75.6488C204.778 73.7237 204.065 71.6001 203.696 69.278C203.328 66.9714 203.349 64.7467 203.759 62.6041C204.167 60.4458 204.921 58.5042 206.021 56.7791C207.133 55.036 208.571 53.5766 210.333 52.4012C212.093 51.2102 214.134 50.4299 216.456 50.0602L238.034 46.6256L238.797 51.4181L217.22 54.8527C215.567 55.1157 214.13 55.6721 212.907 56.5219C211.697 57.3537 210.719 58.3883 209.973 59.6255C209.241 60.8448 208.74 62.2188 208.472 63.7476C208.22 65.2739 208.225 66.8631 208.488 68.5151C208.751 70.1671 209.241 71.6871 209.957 73.0753C210.686 74.4452 211.59 75.6038 212.668 76.5509C213.758 77.4799 215.008 78.152 216.416 78.567C217.84 78.9794 219.378 79.0543 221.03 78.7913L242.607 75.3567L243.371 80.149Z" fill="white"/>
<path d="M272.84 81.9251L268.014 81.4209L271.037 52.4856L253.968 50.7023L254.472 45.8759L293.436 49.9467L292.932 54.773L275.863 52.9899L272.84 81.9251Z" fill="white"/>
<path d="M334.629 100.067L328.525 97.6718L322.595 84.9186L308.757 79.4879L310.503 75.0367L328.639 82.1536C329.579 82.5226 330.53 82.6922 331.491 82.6624C332.458 82.618 333.364 82.4055 334.208 82.0248C335.067 81.65 335.834 81.1204 336.51 80.4361C337.191 79.7371 337.716 78.9175 338.084 77.9774C338.454 77.0372 338.624 76.0865 338.593 75.1254C338.564 74.1644 338.358 73.2617 337.978 72.4172C337.618 71.5639 337.096 70.7995 336.411 70.1241C335.727 69.4487 334.915 68.9264 333.975 68.5575L313.305 60.4462L302.677 87.5282L298.16 85.7555L310.56 54.156L335.747 64.0402C337.305 64.6512 338.648 65.5261 339.778 66.6646C340.913 67.7883 341.786 69.0632 342.396 70.4893C343.027 71.9066 343.368 73.4136 343.419 75.0104C343.486 76.613 343.213 78.1929 342.602 79.75C342.049 81.1604 341.282 82.4021 340.301 83.4752C339.326 84.5337 338.217 85.3952 336.972 86.0598C335.734 86.7096 334.405 87.1375 332.985 87.3431C331.586 87.5397 330.174 87.486 328.751 87.1818L334.629 100.067Z" fill="white"/>
<path d="M391.795 99.8212L381.475 113.296C380.519 114.552 379.438 115.633 378.232 116.539C377.048 117.443 375.779 118.172 374.423 118.728C373.091 119.279 371.694 119.655 370.235 119.852C368.798 120.047 367.351 120.057 365.898 119.882C364.466 119.704 363.055 119.344 361.664 118.8C360.282 118.244 358.969 117.492 357.727 116.546L354.883 114.38C353.639 113.434 352.561 112.365 351.644 111.171C350.75 109.974 350.026 108.698 349.47 107.344C348.928 105.998 348.559 104.607 348.364 103.169C348.179 101.719 348.169 100.273 348.335 98.832C348.522 97.3878 348.887 95.9702 349.431 94.579C349.996 93.1849 350.753 91.8663 351.699 90.6232L361.982 77.1198L365.842 80.0596L355.561 93.5632C354.546 94.894 353.842 96.3409 353.446 97.9035C353.059 99.4536 352.964 100.998 353.161 102.536C353.38 104.072 353.882 105.536 354.668 106.927C355.452 108.318 356.505 109.516 357.823 110.519L360.667 112.685C361.997 113.699 363.439 114.399 364.988 114.785C366.538 115.172 368.076 115.262 369.603 115.056C371.138 114.837 372.601 114.335 373.993 113.549C375.394 112.751 376.601 111.687 377.614 110.357L387.897 96.8527L391.757 99.7925L391.795 99.8212Z" fill="white"/>
<path d="M393.684 154.379L390.858 150.434L404.655 140.551C406.016 139.577 407.109 138.405 407.934 137.038C408.759 135.67 409.293 134.22 409.535 132.688C409.799 131.16 409.756 129.608 409.406 128.035C409.076 126.465 408.425 125 407.451 123.64L405.935 121.523L382.284 138.465L379.458 134.52L407.054 114.752L411.396 120.814C412.297 122.072 412.994 123.397 413.487 124.79C414.003 126.187 414.328 127.604 414.465 129.041C414.6 130.477 414.557 131.906 414.332 133.328C414.109 134.75 413.717 136.128 413.158 137.46C414.59 137.346 416.016 137.412 417.434 137.658C418.852 137.903 420.22 138.322 421.536 138.912C422.852 139.503 424.084 140.262 425.232 141.187C426.402 142.115 427.437 143.208 428.338 144.465L432.693 150.546L405.098 170.313L402.272 166.368L425.923 149.427L424.393 147.291C423.418 145.931 422.241 144.843 420.86 144.027C419.492 143.201 418.038 142.66 416.497 142.406C414.978 142.155 413.432 142.194 411.863 142.522C410.302 142.863 408.842 143.522 407.481 144.496L393.684 154.379Z" fill="white"/>
<path d="M103.385 380.386C102.273 381.165 101.087 381.686 99.8274 381.952C98.5811 382.207 97.3425 382.226 96.1117 382.009C94.9029 381.795 93.7524 381.349 92.6599 380.669C91.5766 380.001 90.6503 379.119 89.8812 378.02L72.9695 353.854L76.9452 351.072L93.8571 375.237C94.2461 375.793 94.7116 376.238 95.2532 376.571C95.7949 376.905 96.3689 377.12 96.9752 377.215C97.5906 377.324 98.2099 377.315 98.8331 377.186C99.4692 377.049 100.059 376.79 100.602 376.411C101.144 376.031 101.583 375.569 101.917 375.028C102.25 374.487 102.471 373.908 102.581 373.293C102.698 372.69 102.693 372.078 102.564 371.455C102.437 370.832 102.179 370.242 101.79 369.685L90.4424 353.472C89.6823 352.386 89.1698 351.213 88.9049 349.954C88.64 348.694 88.6097 347.454 88.8142 346.232C89.0405 345.015 89.4892 343.853 90.1604 342.747C90.8405 341.656 91.7301 340.724 92.8291 339.956C93.9152 339.195 95.0879 338.683 96.3471 338.418C97.6154 338.166 98.854 338.147 100.063 338.36C101.294 338.577 102.455 339.027 103.547 339.706C104.653 340.378 105.585 341.256 106.346 342.342L121.859 364.51L117.884 367.292L102.369 345.125C101.99 344.582 101.524 344.137 100.974 343.79C100.432 343.456 99.8535 343.235 99.2381 343.127C98.6227 343.018 97.997 343.032 97.3609 343.17C96.7377 343.297 96.1546 343.551 95.6116 343.931C95.0685 344.311 94.6238 344.777 94.2772 345.327C93.9435 345.869 93.7225 346.448 93.6138 347.063C93.5051 347.678 93.5147 348.297 93.6427 348.921C93.7796 349.557 94.0382 350.147 94.4181 350.689L105.765 366.903C106.535 368.002 107.041 369.179 107.283 370.435C107.548 371.694 107.567 372.932 107.341 374.15C107.137 375.372 106.694 376.529 106.015 377.622C105.347 378.704 104.47 379.627 103.385 380.386Z" fill="white"/>
<path d="M151.998 407.118C150.937 408.411 149.686 409.426 148.245 410.162C146.826 410.895 145.339 411.34 143.784 411.492C142.251 411.644 140.717 411.497 139.183 411.054C137.648 410.61 136.234 409.859 134.941 408.797L119.881 396.438L122.914 392.742L137.974 405.101C138.755 405.742 139.607 406.197 140.53 406.464C141.464 406.72 142.391 406.797 143.312 406.695C144.244 406.603 145.137 406.335 145.99 405.893C146.854 405.437 147.606 404.82 148.247 404.039C148.888 403.259 149.343 402.406 149.61 401.483C149.878 400.559 149.961 399.638 149.859 398.717C149.779 397.794 149.518 396.906 149.075 396.052C148.633 395.199 148.02 394.451 147.24 393.811L130.076 379.725L111.619 402.213L107.868 399.135L129.403 372.895L150.318 390.06C151.611 391.121 152.62 392.368 153.344 393.799C154.078 395.218 154.516 396.7 154.656 398.244C154.82 399.786 154.679 401.326 154.236 402.861C153.806 404.405 153.059 405.824 151.998 407.118Z" fill="white"/>
<path d="M186.062 447.418L153.991 433.142L167.795 402.13L199.867 416.407L197.893 420.84L170.256 408.537L160.398 430.682L188.036 442.985L186.062 447.418ZM188.211 432.465L166.541 422.819L168.515 418.385L190.184 428.032L188.211 432.465Z" fill="white"/>
<path d="M237.54 457.754L215.962 454.319C213.64 453.95 211.598 453.177 209.836 452.002C208.073 450.827 206.634 449.375 205.519 447.647C204.419 445.922 203.665 443.981 203.258 441.822C202.85 439.664 202.831 437.424 203.201 435.102C203.568 432.795 204.28 430.687 205.335 428.777C206.392 426.852 207.711 425.241 209.292 423.942C210.891 422.631 212.711 421.69 214.751 421.121C216.794 420.535 218.976 420.427 221.299 420.796L242.876 424.23L242.113 429.023L220.535 425.589C218.884 425.325 217.345 425.408 215.918 425.836C214.51 426.251 213.259 426.931 212.166 427.875C211.091 428.807 210.188 429.958 209.459 431.328C208.745 432.7 208.257 434.212 207.993 435.865C207.731 437.517 207.725 439.114 207.974 440.656C208.242 442.184 208.742 443.566 209.472 444.801C210.22 446.023 211.199 447.049 212.409 447.881C213.634 448.716 215.073 449.264 216.726 449.527L238.302 452.962L237.54 457.754Z" fill="white"/>
<path d="M275.976 456.219L271.15 456.723L268.127 427.788L251.058 429.571L250.554 424.744L289.519 420.674L290.022 425.5L272.953 427.284L275.976 456.219Z" fill="white"/>
<path d="M346.742 435.89L340.638 438.285L327.617 432.969L313.779 438.4L312.031 433.948L330.167 426.831C331.107 426.462 331.919 425.94 332.604 425.264C333.283 424.575 333.802 423.803 334.162 422.95C334.537 422.09 334.739 421.18 334.769 420.22C334.793 419.244 334.62 418.285 334.251 417.345C333.883 416.405 333.361 415.593 332.685 414.909C332.009 414.224 331.245 413.702 330.391 413.341C329.547 412.962 328.645 412.756 327.683 412.726C326.723 412.696 325.772 412.866 324.831 413.235L304.162 421.347L314.79 448.429L310.272 450.201L297.872 418.602L323.059 408.718C324.616 408.107 326.196 407.834 327.799 407.901C329.395 407.952 330.902 408.292 332.319 408.924C333.745 409.534 335.021 410.406 336.144 411.542C337.283 412.672 338.158 414.015 338.769 415.573C339.323 416.982 339.604 418.415 339.616 419.868C339.621 421.307 339.393 422.694 338.933 424.027C338.467 425.345 337.784 426.563 336.883 427.679C335.991 428.775 334.919 429.696 333.669 430.441L346.742 435.89Z" fill="white"/>
<path d="M371.037 377.475L381.282 391.007C382.237 392.264 382.992 393.593 383.545 394.997C384.102 396.378 384.468 397.796 384.642 399.25C384.819 400.681 384.81 402.127 384.612 403.587C384.417 405.024 384.042 406.421 383.487 407.775C382.935 409.109 382.212 410.373 381.318 411.57C380.414 412.754 379.341 413.818 378.098 414.765L375.254 416.93C374.011 417.877 372.693 418.633 371.298 419.198C369.907 419.742 368.485 420.101 367.031 420.276C365.59 420.442 364.15 420.427 362.713 420.232C361.266 420.025 359.87 419.65 358.525 419.108C357.182 418.543 355.913 417.814 354.716 416.919C353.522 416.003 352.453 414.923 351.506 413.681L341.223 400.177L345.085 397.237L355.367 410.741C356.38 412.072 357.587 413.136 358.988 413.933C360.38 414.719 361.844 415.221 363.379 415.44C364.917 415.637 366.461 415.542 368.012 415.155C369.562 414.769 370.996 414.074 372.314 413.07L375.158 410.904C376.49 409.89 377.547 408.688 378.333 407.297C379.118 405.906 379.613 404.447 379.821 402.921C380.017 401.382 379.923 399.838 379.536 398.288C379.139 396.725 378.435 395.279 377.421 393.947L367.139 380.444L370.999 377.505L371.037 377.475Z" fill="white"/>
<path d="M421.169 369.607L418.343 373.553L404.544 363.67C403.185 362.695 401.724 362.038 400.164 361.696C398.603 361.355 397.058 361.315 395.53 361.58C393.998 361.821 392.543 362.362 391.166 363.2C389.785 364.016 388.608 365.105 387.634 366.464L386.118 368.581L409.769 385.523L406.943 389.468L379.347 369.7L383.689 363.638C384.59 362.381 385.62 361.295 386.781 360.379C387.938 359.442 389.174 358.677 390.49 358.086C391.806 357.496 393.174 357.077 394.592 356.831C396.011 356.586 397.441 356.513 398.882 356.614C398.314 355.295 397.918 353.923 397.694 352.501C397.47 351.079 397.426 349.65 397.562 348.214C397.698 346.777 398.019 345.367 398.525 343.983C399.028 342.577 399.73 341.245 400.631 339.987L404.986 333.906L432.582 353.674L429.756 357.619L406.106 340.677L404.576 342.813C403.601 344.174 402.95 345.638 402.621 347.208C402.28 348.769 402.237 350.32 402.491 351.861C402.743 353.381 403.276 354.83 404.092 356.211C404.918 357.579 406.011 358.75 407.37 359.725L421.169 369.607Z" fill="white"/>
<path fill-rule="evenodd" clip-rule="evenodd" d="M394.902 255.878C394.902 334.526 331.145 398.123 252.496 397.928C173.847 397.733 110.09 333.819 110.09 255.171C110.09 176.523 173.847 112.926 252.496 113.12C331.145 113.315 394.902 177.23 394.902 255.878ZM383.8 255.856C383.8 328.371 325.015 387.009 252.5 386.83C179.985 386.65 121.2 327.719 121.2 255.204C121.2 182.689 179.985 124.051 252.5 124.23C325.015 124.41 383.8 183.341 383.8 255.856Z" fill="#ECAE42"/>
</g>
<defs>
<clipPath id="clip0_3_691">
<rect width="505" height="505" fill="white"/>
</clipPath>
</defs>
</svg>
