<svg width="620" height="620" viewBox="0 0 620 620" fill="none" xmlns="http://www.w3.org/2000/svg">
<circle cx="311" cy="310" r="245" fill="#453F8B"/>
<mask id="mask0_20_605" style="mask-type:alpha" maskUnits="userSpaceOnUse" x="66" y="65" width="490" height="490">
<circle cx="311" cy="310" r="245" fill="#D9D9D9"/>
</mask>
<g mask="url(#mask0_20_605)">
<rect x="177" y="162" width="269" height="393" fill="#4077F0"/>
</g>
<mask id="mask1_20_605" style="mask-type:alpha" maskUnits="userSpaceOnUse" x="66" y="65" width="490" height="490">
<circle cx="311" cy="310" r="245" fill="#1D1617"/>
</mask>
<g mask="url(#mask1_20_605)">
<path d="M156 177C156 160.984 168.984 148 185 148V148V524H156V177Z" fill="#1D1617"/>
<path d="M433.534 148L433.534 177L185 177L185 148L433.534 148Z" fill="#1D1617"/>
<path d="M433.534 148V148C451.464 148 466 162.536 466 180.466V524H433.534V148Z" fill="#1D1617"/>
</g>
<rect x="420" y="271" width="53" height="24" fill="#ECAE42"/>
<rect x="498" y="218" width="53" height="24" fill="#ECAE42"/>
<rect x="461.858" y="278.468" width="59.5096" height="24" transform="rotate(-64.7287 461.858 278.468)" fill="#ECAE42"/>
<circle cx="420" cy="283" r="12" fill="#ECAE42"/>
<circle cx="546" cy="230" r="22" fill="#ECAE42"/>
<circle cx="498" cy="230" r="12" fill="#ECAE42"/>
<circle cx="473" cy="283" r="12" fill="#ECAE42"/>
<rect width="53" height="24" transform="matrix(1 0 0 -1 420 410)" fill="#ECAE42"/>
<rect width="53" height="24" transform="matrix(1 0 0 -1 498 463)" fill="#ECAE42"/>
<rect width="59.5096" height="24" transform="matrix(0.426905 0.904297 0.904297 -0.426905 461.858 402.532)" fill="#ECAE42"/>
<circle cx="12" cy="12" r="12" transform="matrix(1 0 0 -1 408 410)" fill="#ECAE42"/>
<circle cx="22" cy="22" r="22" transform="matrix(1 0 0 -1 524 473)" fill="#ECAE42"/>
<circle cx="12" cy="12" r="12" transform="matrix(1 0 0 -1 486 463)" fill="#ECAE42"/>
<circle cx="12" cy="12" r="12" transform="matrix(1 0 0 -1 461 410)" fill="#ECAE42"/>
<circle cx="420" cy="341" r="12" fill="#ECAE42"/>
<circle cx="546" cy="341" r="22" fill="#ECAE42"/>
<rect x="420" y="329" width="109" height="24" fill="#ECAE42"/>
<rect width="53" height="24" transform="matrix(-1 0 0 1 199 271)" fill="#ECAE42"/>
<rect width="53" height="24" transform="matrix(-1 0 0 1 121 218)" fill="#ECAE42"/>
<rect width="59.5096" height="24" transform="matrix(-0.426905 -0.904297 -0.904297 0.426905 157.142 278.468)" fill="#ECAE42"/>
<circle cx="12" cy="12" r="12" transform="matrix(-1 0 0 1 211 271)" fill="#ECAE42"/>
<circle cx="22" cy="22" r="22" transform="matrix(-1 0 0 1 95 208)" fill="#ECAE42"/>
<circle cx="12" cy="12" r="12" transform="matrix(-1 0 0 1 133 218)" fill="#ECAE42"/>
<circle cx="12" cy="12" r="12" transform="matrix(-1 0 0 1 158 271)" fill="#ECAE42"/>
<rect x="199" y="410" width="53" height="24" transform="rotate(180 199 410)" fill="#ECAE42"/>
<rect x="121" y="463" width="53" height="24" transform="rotate(180 121 463)" fill="#ECAE42"/>
<rect x="157.142" y="402.532" width="59.5096" height="24" transform="rotate(115.271 157.142 402.532)" fill="#ECAE42"/>
<circle cx="199" cy="398" r="12" transform="rotate(180 199 398)" fill="#ECAE42"/>
<circle cx="73" cy="451" r="22" transform="rotate(180 73 451)" fill="#ECAE42"/>
<circle cx="121" cy="451" r="12" transform="rotate(180 121 451)" fill="#ECAE42"/>
<circle cx="146" cy="398" r="12" transform="rotate(180 146 398)" fill="#ECAE42"/>
<circle cx="12" cy="12" r="12" transform="matrix(-1 0 0 1 211 329)" fill="#ECAE42"/>
<circle cx="22" cy="22" r="22" transform="matrix(-1 0 0 1 95 319)" fill="#ECAE42"/>
<rect width="109" height="24" transform="matrix(-1 0 0 1 199 329)" fill="#ECAE42"/>
<circle cx="252" cy="232" r="12" fill="#ECAE42"/>
<rect x="240" y="193" width="53" height="24" transform="rotate(-90 240 193)" fill="#ECAE42"/>
<rect x="187" y="115" width="53" height="24" transform="rotate(-90 187 115)" fill="#ECAE42"/>
<rect x="247.468" y="151.142" width="59.5096" height="24" transform="rotate(-154.729 247.468 151.142)" fill="#ECAE42"/>
<circle cx="252" cy="193" r="12" transform="rotate(-90 252 193)" fill="#ECAE42"/>
<circle cx="199" cy="67" r="22" transform="rotate(-90 199 67)" fill="#ECAE42"/>
<circle cx="199" cy="115" r="12" transform="rotate(-90 199 115)" fill="#ECAE42"/>
<circle cx="252" cy="140" r="12" transform="rotate(-90 252 140)" fill="#ECAE42"/>
<rect width="53" height="24" transform="matrix(1.19249e-08 -1 -1 -1.19249e-08 379 193)" fill="#ECAE42"/>
<rect width="53" height="24" transform="matrix(1.19249e-08 -1 -1 -1.19249e-08 432 115)" fill="#ECAE42"/>
<rect width="59.5096" height="24" transform="matrix(0.904297 -0.426905 -0.426905 -0.904297 371.532 151.142)" fill="#ECAE42"/>
<circle cx="12" cy="12" r="12" transform="matrix(1.19249e-08 -1 -1 -1.19249e-08 379 205)" fill="#ECAE42"/>
<circle cx="22" cy="22" r="22" transform="matrix(1.19249e-08 -1 -1 -1.19249e-08 442 89)" fill="#ECAE42"/>
<circle cx="12" cy="12" r="12" transform="matrix(1.19249e-08 -1 -1 -1.19249e-08 432 127)" fill="#ECAE42"/>
<circle cx="12" cy="12" r="12" transform="matrix(1.19249e-08 -1 -1 -1.19249e-08 379 152)" fill="#ECAE42"/>
<circle cx="310" cy="193" r="12" transform="rotate(-90 310 193)" fill="#ECAE42"/>
<circle cx="310" cy="67" r="22" transform="rotate(-90 310 67)" fill="#ECAE42"/>
<rect x="298" y="193" width="109" height="24" transform="rotate(-90 298 193)" fill="#ECAE42"/>
<rect x="240" y="194" width="24" height="39" fill="#ECAE42"/>
<circle cx="367" cy="232" r="12" fill="#ECAE42"/>
<rect x="355" y="194" width="24" height="39" fill="#ECAE42"/>
<circle cx="310" cy="232" r="12" fill="#ECAE42"/>
<rect x="298" y="194" width="24" height="39" fill="#ECAE42"/>
<rect x="233" y="264" width="154" height="154" rx="22" fill="#453F8B"/>
<path d="M337.787 379H326.776V356.979H265.331V346.021H326.776V312.989H287.299C283.539 312.989 279.994 313.723 276.664 315.191C273.334 316.624 270.434 318.593 267.963 321.1C265.492 323.57 263.523 326.471 262.055 329.801C260.622 333.131 259.906 336.694 259.906 340.489V379H248.896V340.489C248.896 336.944 249.343 333.543 250.238 330.284C251.169 326.99 252.458 323.928 254.105 321.1C255.788 318.235 257.794 315.639 260.121 313.312C262.484 310.948 265.08 308.925 267.909 307.242C270.774 305.559 273.835 304.27 277.094 303.375C280.352 302.444 283.754 301.979 287.299 301.979H337.787V379ZM367.274 379H356.264V301.979H367.274V379Z" fill="#ECAE42"/>
</svg>
