<svg width="620" height="620" viewBox="0 0 620 620" fill="none" xmlns="http://www.w3.org/2000/svg">
<circle cx="310" cy="310" r="245" fill="#453F8B"/>
<mask id="mask0_20_604" style="mask-type:alpha" maskUnits="userSpaceOnUse" x="65" y="65" width="490" height="490">
<circle cx="310" cy="310" r="245" fill="#D9D9D9"/>
</mask>
<g mask="url(#mask0_20_604)">
<path fill-rule="evenodd" clip-rule="evenodd" d="M494.5 328H125.5H125V327.998C81.3235 327.729 46 292.24 46 248.5C46 204.593 81.5934 169 125.5 169C134.964 169 144.042 170.654 152.46 173.688C161.492 116.073 211.349 72 271.5 72C313.304 72 350.136 93.2874 371.747 125.614C380.107 122.627 389.114 121 398.5 121C432.368 121 461.289 142.178 472.744 172.014C479.658 170.051 486.957 169 494.5 169C538.407 169 574 204.593 574 248.5C574 291.906 539.214 327.186 496 327.986V328H494.5Z" fill="#4077F0"/>
</g>
<rect x="450" y="328" width="85" height="24" transform="rotate(90 450 328)" fill="#ECAE42"/>
<rect x="503" y="438" width="53" height="24" transform="rotate(90 503 438)" fill="#ECAE42"/>
<rect x="442.532" y="401.858" width="59.5096" height="24" transform="rotate(25.2713 442.532 401.858)" fill="#ECAE42"/>
<circle cx="491" cy="486" r="22" transform="rotate(90 491 486)" fill="#ECAE42"/>
<circle cx="491" cy="438" r="12" transform="rotate(90 491 438)" fill="#ECAE42"/>
<circle cx="438" cy="413" r="12" transform="rotate(90 438 413)" fill="#ECAE42"/>
<rect x="387" y="328" width="146" height="24" transform="rotate(90 387 328)" fill="#ECAE42"/>
<rect x="440" y="499" width="53" height="24" transform="rotate(90 440 499)" fill="#ECAE42"/>
<rect x="379.532" y="462.858" width="59.5096" height="24" transform="rotate(25.2713 379.532 462.858)" fill="#ECAE42"/>
<circle cx="428" cy="547" r="22" transform="rotate(90 428 547)" fill="#ECAE42"/>
<circle cx="428" cy="499" r="12" transform="rotate(90 428 499)" fill="#ECAE42"/>
<circle cx="375" cy="474" r="12" transform="rotate(90 375 474)" fill="#ECAE42"/>
<rect x="322" y="328" width="229" height="24" transform="rotate(90 322 328)" fill="#ECAE42"/>
<circle cx="310" cy="569" r="22" transform="rotate(90 310 569)" fill="#ECAE42"/>
<rect width="85" height="24" transform="matrix(-4.37114e-08 1 1 4.37114e-08 170 328)" fill="#ECAE42"/>
<rect width="53" height="24" transform="matrix(-4.37114e-08 1 1 4.37114e-08 117 438)" fill="#ECAE42"/>
<rect width="59.5096" height="24" transform="matrix(-0.904297 0.426905 0.426905 0.904297 177.468 401.858)" fill="#ECAE42"/>
<circle cx="22" cy="22" r="22" transform="matrix(-4.37114e-08 1 1 4.37114e-08 107 464)" fill="#ECAE42"/>
<circle cx="12" cy="12" r="12" transform="matrix(-4.37114e-08 1 1 4.37114e-08 117 426)" fill="#ECAE42"/>
<circle cx="12" cy="12" r="12" transform="matrix(-4.37114e-08 1 1 4.37114e-08 170 401)" fill="#ECAE42"/>
<rect width="146" height="24" transform="matrix(-4.37114e-08 1 1 4.37114e-08 233 328)" fill="#ECAE42"/>
<rect width="53" height="24" transform="matrix(-4.37114e-08 1 1 4.37114e-08 180 499)" fill="#ECAE42"/>
<rect width="59.5096" height="24" transform="matrix(-0.904297 0.426905 0.426905 0.904297 240.468 462.858)" fill="#ECAE42"/>
<circle cx="22" cy="22" r="22" transform="matrix(-4.37114e-08 1 1 4.37114e-08 170 525)" fill="#ECAE42"/>
<circle cx="12" cy="12" r="12" transform="matrix(-4.37114e-08 1 1 4.37114e-08 180 487)" fill="#ECAE42"/>
<circle cx="12" cy="12" r="12" transform="matrix(-4.37114e-08 1 1 4.37114e-08 233 462)" fill="#ECAE42"/>
<rect x="248" y="149" width="124" height="124" rx="22" fill="#453F8B"/>
<path d="M342 109C346.418 109 350 112.582 350 117L350 149L334 149L334 117C334 112.582 337.582 109 342 109V109Z" fill="#ECAE42"/>
<path d="M278 109C282.418 109 286 112.582 286 117L286 149L270 149L270 117C270 112.582 273.582 109 278 109V109Z" fill="#ECAE42"/>
<path d="M310 109C314.418 109 318 112.582 318 117L318 149L302 149L302 117C302 112.582 305.582 109 310 109V109Z" fill="#ECAE42"/>
<path d="M278 313C273.582 313 270 309.418 270 305L270 273L286 273L286 305C286 309.418 282.418 313 278 313V313Z" fill="#ECAE42"/>
<path d="M342 313C337.582 313 334 309.418 334 305L334 273L350 273L350 305C350 309.418 346.418 313 342 313V313Z" fill="#ECAE42"/>
<path d="M310 313C305.582 313 302 309.418 302 305L302 273L318 273L318 305C318 309.418 314.418 313 310 313V313Z" fill="#ECAE42"/>
<path d="M412 243C412 247.418 408.418 251 404 251L372 251L372 235L404 235C408.418 235 412 238.582 412 243V243Z" fill="#ECAE42"/>
<path d="M412 179C412 183.418 408.418 187 404 187L372 187L372 171L404 171C408.418 171 412 174.582 412 179V179Z" fill="#ECAE42"/>
<path d="M412 211C412 215.418 408.418 219 404 219L372 219L372 203L404 203C408.418 203 412 206.582 412 211V211Z" fill="#ECAE42"/>
<path d="M208 179C208 174.582 211.582 171 216 171L248 171L248 187L216 187C211.582 187 208 183.418 208 179V179Z" fill="#ECAE42"/>
<path d="M208 243C208 238.582 211.582 235 216 235L248 235L248 251L216 251C211.582 251 208 247.418 208 243V243Z" fill="#ECAE42"/>
<path d="M208 211C208 206.582 211.582 203 216 203L248 203L248 219L216 219C211.582 219 208 215.418 208 211V211Z" fill="#ECAE42"/>
<path d="M331.391 238H323.383V221.984H278.695V214.016H323.383V189.992H294.672C291.938 189.992 289.359 190.526 286.938 191.594C284.516 192.635 282.406 194.068 280.609 195.891C278.812 197.688 277.38 199.797 276.312 202.219C275.271 204.641 274.75 207.232 274.75 209.992V238H266.742V209.992C266.742 207.414 267.068 204.94 267.719 202.57C268.396 200.174 269.333 197.948 270.531 195.891C271.755 193.807 273.214 191.919 274.906 190.227C276.625 188.508 278.513 187.036 280.57 185.812C282.654 184.589 284.88 183.651 287.25 183C289.62 182.323 292.094 181.984 294.672 181.984H331.391V238ZM352.836 238H344.828V181.984H352.836V238Z" fill="#ECAE42"/>
</svg>
