<svg width="620" height="620" viewBox="0 0 620 620" fill="none" xmlns="http://www.w3.org/2000/svg">
<circle cx="309.952" cy="309.781" r="245" fill="#453F8B"/>
<circle cx="431.952" cy="217.781" r="92" fill="#1D1617"/>
<circle cx="187.952" cy="401.781" r="92" fill="#1D1617"/>
<mask id="mask0_20_603" style="mask-type:alpha" maskUnits="userSpaceOnUse" x="339" y="125" width="185" height="185">
<circle cx="431.952" cy="217.781" r="92" fill="#D9D9D9"/>
</mask>
<g mask="url(#mask0_20_603)">
<path d="M509.952 271.7C509.952 292.732 476.15 309.781 434.452 309.781C392.755 309.781 358.952 292.732 358.952 271.7C358.952 250.669 392.452 229.553 434.452 237.687C471.452 229.184 509.952 250.669 509.952 271.7Z" fill="#ECAE42"/>
<path d="M477.952 186.781C477.952 212.462 460.305 239.781 435.452 239.781C410.599 239.781 390.952 212.462 390.952 186.781C390.952 161.1 410.599 146.781 435.452 146.781C460.305 146.781 477.952 161.1 477.952 186.781Z" fill="#FFC7AB"/>
</g>
<rect x="131.952" y="345.781" width="112" height="112" rx="22" fill="#453F8B"/>
<path d="M206.544 425.781H199.537V411.767H160.436V404.794H199.537V383.774H174.415C172.022 383.774 169.767 384.241 167.647 385.175C165.528 386.087 163.683 387.34 162.11 388.935C160.538 390.507 159.285 392.353 158.351 394.472C157.439 396.591 156.983 398.859 156.983 401.274V425.781H149.977V401.274C149.977 399.018 150.261 396.853 150.831 394.78C151.424 392.683 152.244 390.735 153.292 388.935C154.363 387.112 155.639 385.46 157.12 383.979C158.624 382.475 160.276 381.188 162.076 380.117C163.899 379.046 165.847 378.225 167.921 377.656C169.994 377.063 172.159 376.767 174.415 376.767H206.544V425.781ZM225.309 425.781H218.302V376.767H225.309V425.781Z" fill="#ECAE42"/>
<path fill-rule="evenodd" clip-rule="evenodd" d="M577.467 182.021C597.252 259.905 550.154 339.081 472.27 358.866C455.943 363.013 439.56 364.221 423.678 362.823L428.859 368.184C433.849 373.346 433.708 381.575 428.546 386.564C423.384 391.553 415.155 391.413 410.166 386.251L385.838 361.08L385.838 361.079C383.978 359.367 382.577 357.112 381.908 354.479C380.573 349.221 382.522 343.9 386.467 340.684L412.292 316.245C417.507 311.311 425.734 311.538 430.668 316.753C435.603 321.967 435.376 330.194 430.161 335.129L427.409 337.733C440.056 338.685 453.069 337.635 466.04 334.34C530.379 317.996 569.286 252.59 552.942 188.251C536.598 123.912 471.192 85.005 406.853 101.349C350.103 115.765 313.139 168.352 316.424 224.709L316.43 224.709L320.196 282.4C320.651 289.375 315.365 295.398 308.39 295.853C301.415 296.309 295.392 291.023 294.936 284.048L291.3 228.326C286.233 159.288 331.197 94.46 400.623 76.8237C478.506 57.0388 557.682 104.137 577.467 182.021ZM413.053 351.318L412.801 351.568L412.795 351.562L413.053 351.318Z" fill="#ECAE42"/>
<path fill-rule="evenodd" clip-rule="evenodd" d="M43.1002 442.031C21.891 364.523 67.5302 284.497 145.038 263.288C161.286 258.842 177.645 257.333 193.549 258.44L188.271 253.175C183.188 248.106 183.177 239.875 188.247 234.792C193.317 229.709 201.547 229.699 206.63 234.769L231.415 259.49L231.415 259.49C233.306 261.169 234.748 263.397 235.465 266.018C236.897 271.25 235.046 276.606 231.161 279.894L205.787 304.802C200.664 309.831 192.434 309.754 187.405 304.631C182.376 299.508 182.452 291.278 187.575 286.249L190.279 283.595C177.617 282.875 164.625 284.163 151.717 287.695C87.6886 305.216 49.9866 371.324 67.5073 435.352C85.0279 499.381 151.136 537.083 215.165 519.562C271.64 504.108 307.633 450.854 303.317 394.568L303.309 394.568L298.48 336.863C297.897 329.897 303.071 323.778 310.036 323.195C317.002 322.612 323.121 327.786 323.704 334.751L328.532 392.437L328.533 392.437L328.362 390.39C334.744 459.359 290.967 525.054 221.843 543.969C144.335 565.178 64.3094 519.539 43.1002 442.031ZM204.383 269.75L204.631 269.494L204.637 269.5L204.383 269.75Z" fill="#ECAE42"/>
</svg>
